<svg xmlns="http://www.w3.org/2000/svg" viewBox="0 0 24 24"><style>
circle,polygon,g{transform-box:view-box;transform-origin:0 0}
@keyframes roll{0%{transform:translate(5.55px,15.05px) scale(0)}1.562%{transform:translate(5.794px,15.05px) scale(0.073)}3.125%{transform:translate(6.039px,15.05px) scale(0.149)}4.688%{transform:translate(6.284px,15.05px) scale(0.226)}6.25%{transform:translate(6.53px,15.05px) scale(0.305)}7.812%{transform:translate(6.775px,15.05px) scale(0.385)}9.375%{transform:translate(7.021px,15.05px) scale(0.464)}10.938%{transform:translate(7.267px,15.05px) scale(0.543)}12.5%{transform:translate(7.512px,15.05px) scale(0.622)}14.062%{transform:translate(7.758px,15.05px) scale(0.699)}15.625%{transform:translate(8.002px,15.05px) scale(0.774)}17.188%{transform:translate(8.246px,15.05px) scale(0.846)}18.75%{transform:translate(8.489px,15.05px) scale(0.915)}20.312%{transform:translate(8.731px,15.05px) scale(0.981)}21.875%{transform:translate(8.972px,15.05px) scale(1.042)}23.438%{transform:translate(9.212px,15.05px) scale(1.099)}25%{transform:translate(9.45px,15.05px) scale(1.15)}26.562%{transform:translate(9.685px,15.05px) scale(1.196)}28.125%{transform:translate(9.916px,15.05px) scale(1.236)}29.688%{transform:translate(10.143px,15.05px) scale(1.271)}31.25%{transform:translate(10.368px,15.05px) scale(1.302)}32.812%{transform:translate(10.591px,15.05px) scale(1.329)}34.375%{transform:translate(10.813px,15.05px) scale(1.353)}35.938%{transform:translate(11.034px,15.05px) scale(1.374)}37.5%{transform:translate(11.256px,15.05px) scale(1.394)}39.062%{transform:translate(11.48px,15.05px) scale(1.412)}40.625%{transform:translate(11.705px,15.05px) scale(1.429)}42.188%{transform:translate(11.934px,15.05px) scale(1.446)}43.75%{transform:translate(12.166px,15.05px) scale(1.464)}45.312%{transform:translate(12.403px,15.05px) scale(1.483)}46.875%{transform:translate(12.646px,15.05px) scale(1.503)}48.438%{transform:translate(12.894px,15.05px) scale(1.525)}50%{transform:translate(13.15px,15.05px) scale(1.55)}51.562%{transform:translate(13.412px,15.05px) scale(1.577)}53.125%{transform:translate(13.679px,15.05px) scale(1.604)}54.688%{transform:translate(13.951px,15.05px) scale(1.632)}56.25%{transform:translate(14.227px,15.05px) scale(1.66)}57.812%{transform:translate(14.508px,15.05px) scale(1.689)}59.375%{transform:translate(14.792px,15.05px) scale(1.717)}60.938%{transform:translate(15.079px,15.05px) scale(1.746)}62.5%{transform:translate(15.369px,15.05px) scale(1.775)}64.062%{transform:translate(15.661px,15.05px) scale(1.804)}65.625%{transform:translate(15.956px,15.05px) scale(1.833)}67.188%{transform:translate(16.253px,15.05px) scale(1.861)}68.75%{transform:translate(16.551px,15.05px) scale(1.89)}70.312%{transform:translate(16.85px,15.05px) scale(1.918)}71.875%{transform:translate(17.15px,15.05px) scale(1.946)}73.438%{transform:translate(17.45px,15.05px) scale(1.973)}75%{transform:translate(17.75px,15.05px) scale(2)}76.562%{transform:translate(18.052px,15.05px) scale(1.965)}78.125%{transform:translate(18.356px,15.05px) scale(1.822)}79.688%{transform:translate(18.663px,15.05px) scale(1.596)}81.25%{transform:translate(18.972px,15.05px) scale(1.312)}82.812%{transform:translate(19.283px,15.05px) scale(0.998)}84.375%{transform:translate(19.596px,15.05px) scale(0.681)}85.938%{transform:translate(19.91px,15.05px) scale(0.393)}87.5%{transform:translate(20.225px,15.05px) scale(0.163)}89.062%{transform:translate(20.541px,15.05px) scale(0.025)}90.625%{transform:translate(20.857px,15.05px) scale(0)}92.188%{transform:translate(21.174px,15.05px) scale(0)}93.75%{transform:translate(21.491px,15.05px) scale(0)}95.312%{transform:translate(21.807px,15.05px) scale(0)}96.875%{transform:translate(22.122px,15.05px) scale(0)}98.438%{transform:translate(22.437px,15.05px) scale(0)}100%{transform:translate(22.75px,15.05px) scale(0)}}
.p0{transform:translate(5.55px,15.05px) scale(0);animation:roll 2s linear 0s infinite}
.p1{transform:translate(9.45px,15.05px) scale(1.15);animation:roll 2s linear -0.5s infinite}
.p2{transform:translate(13.15px,15.05px) scale(1.55);animation:roll 2s linear -1s infinite}
.p3{transform:translate(17.75px,15.05px) scale(2);animation:roll 2s linear -1.5s infinite}
@keyframes b0{0%{transform:translate(2.35px,10.45px) scale(0)}1.25%{transform:translate(2.35px,10.45px) scale(0)}2.5%{transform:translate(2.35px,10.45px) scale(0)}3.75%{transform:translate(2.35px,10.45px) scale(0)}5%{transform:translate(2.35px,10.45px) scale(0)}6.25%{transform:translate(2.45px,10.103px) scale(0.191)}7.5%{transform:translate(2.536px,9.764px) scale(0.394)}8.75%{transform:translate(2.614px,9.433px) scale(0.601)}10%{transform:translate(2.69px,9.108px) scale(0.805)}11.25%{transform:translate(2.768px,8.791px) scale(0.999)}12.5%{transform:translate(2.854px,8.478px) scale(1.177)}13.75%{transform:translate(2.95px,8.172px) scale(1.334)}15%{transform:translate(3.061px,7.87px) scale(1.467)}16.25%{transform:translate(3.188px,7.572px) scale(1.571)}17.5%{transform:translate(3.334px,7.279px) scale(1.645)}18.75%{transform:translate(3.504px,6.983px) scale(1.687)}20%{transform:translate(3.695px,6.681px) scale(1.706)}21.25%{transform:translate(3.903px,6.376px) scale(1.705)}22.5%{transform:translate(4.12px,6.074px) scale(1.688)}23.75%{transform:translate(4.342px,5.778px) scale(1.658)}25%{transform:translate(4.565px,5.491px) scale(1.618)}26.25%{transform:translate(4.784px,5.217px) scale(1.571)}27.5%{transform:translate(4.996px,4.958px) scale(1.519)}28.75%{transform:translate(5.198px,4.716px) scale(1.463)}30%{transform:translate(5.389px,4.491px) scale(1.406)}31.25%{transform:translate(5.566px,4.286px) scale(1.349)}32.5%{transform:translate(5.727px,4.101px) scale(1.293)}33.75%{transform:translate(5.873px,3.937px) scale(1.24)}35%{transform:translate(6.002px,3.793px) scale(1.189)}36.25%{transform:translate(6.119px,3.668px) scale(1.136)}37.5%{transform:translate(6.226px,3.559px) scale(1.08)}38.75%{transform:translate(6.325px,3.464px) scale(1.023)}40%{transform:translate(6.416px,3.381px) scale(0.965)}41.25%{transform:translate(6.501px,3.308px) scale(0.906)}42.5%{transform:translate(6.579px,3.243px) scale(0.847)}43.75%{transform:translate(6.653px,3.186px) scale(0.789)}45%{transform:translate(6.722px,3.134px) scale(0.732)}46.25%{transform:translate(6.786px,3.087px) scale(0.676)}47.5%{transform:translate(6.847px,3.045px) scale(0.622)}48.75%{transform:translate(6.904px,3.005px) scale(0.57)}50%{transform:translate(6.959px,2.969px) scale(0.52)}51.25%{transform:translate(7.01px,2.935px) scale(0.473)}52.5%{transform:translate(7.058px,2.902px) scale(0.427)}53.75%{transform:translate(7.105px,2.872px) scale(0.384)}55%{transform:translate(7.148px,2.843px) scale(0.344)}56.25%{transform:translate(7.189px,2.815px) scale(0.306)}57.5%{transform:translate(7.228px,2.789px) scale(0.27)}58.75%{transform:translate(7.265px,2.763px) scale(0.237)}60%{transform:translate(7.299px,2.739px) scale(0.207)}61.25%{transform:translate(7.331px,2.717px) scale(0.179)}62.5%{transform:translate(7.361px,2.695px) scale(0.153)}63.75%{transform:translate(7.389px,2.675px) scale(0.129)}65%{transform:translate(7.414px,2.656px) scale(0.108)}66.25%{transform:translate(7.437px,2.638px) scale(0.089)}67.5%{transform:translate(7.458px,2.622px) scale(0.072)}68.75%{transform:translate(7.477px,2.608px) scale(0.057)}70%{transform:translate(7.494px,2.595px) scale(0.044)}71.25%{transform:translate(7.508px,2.584px) scale(0.032)}72.5%{transform:translate(7.52px,2.574px) scale(0.023)}73.75%{transform:translate(7.53px,2.566px) scale(0.015)}75%{transform:translate(7.538px,2.56px) scale(0.009)}76.25%{transform:translate(7.543px,2.555px) scale(0.005)}77.5%{transform:translate(7.547px,2.552px) scale(0.002)}78.75%{transform:translate(7.549px,2.55px) scale(0)}80%{transform:translate(2.35px,10.45px) scale(0)}81.25%{transform:translate(2.35px,10.45px) scale(0)}82.5%{transform:translate(2.35px,10.45px) scale(0)}83.75%{transform:translate(2.35px,10.45px) scale(0)}85%{transform:translate(2.35px,10.45px) scale(0)}86.25%{transform:translate(2.35px,10.45px) scale(0)}87.5%{transform:translate(2.35px,10.45px) scale(0)}88.75%{transform:translate(2.35px,10.45px) scale(0)}90%{transform:translate(2.35px,10.45px) scale(0)}91.25%{transform:translate(2.35px,10.45px) scale(0)}92.5%{transform:translate(2.35px,10.45px) scale(0)}93.75%{transform:translate(2.35px,10.45px) scale(0)}95%{transform:translate(2.35px,10.45px) scale(0)}96.25%{transform:translate(2.35px,10.45px) scale(0)}97.5%{transform:translate(2.35px,10.45px) scale(0)}98.75%{transform:translate(2.35px,10.45px) scale(0)}100%{transform:translate(2.35px,10.45px) scale(0)}}
.b0{transform:translate(3.35px,7.25px) scale(1.5);animation:b0 2s linear infinite}
@keyframes b1{0%{transform:translate(2.35px,10.45px) scale(0)}1.25%{transform:translate(2.35px,10.45px) scale(0)}2.5%{transform:translate(2.35px,10.45px) scale(0)}3.75%{transform:translate(2.35px,10.45px) scale(0)}5%{transform:translate(2.35px,10.45px) scale(0)}6.25%{transform:translate(2.35px,10.45px) scale(0)}7.5%{transform:translate(2.35px,10.45px) scale(0)}8.75%{transform:translate(2.35px,10.45px) scale(0)}10%{transform:translate(2.35px,10.45px) scale(0)}11.25%{transform:translate(2.35px,10.45px) scale(0)}12.5%{transform:translate(2.469px,10.171px) scale(0.098)}13.75%{transform:translate(2.605px,9.831px) scale(0.229)}15%{transform:translate(2.731px,9.498px) scale(0.364)}16.25%{transform:translate(2.853px,9.173px) scale(0.497)}17.5%{transform:translate(2.976px,8.854px) scale(0.625)}18.75%{transform:translate(3.105px,8.54px) scale(0.743)}20%{transform:translate(3.244px,8.233px) scale(0.848)}21.25%{transform:translate(3.395px,7.93px) scale(0.938)}22.5%{transform:translate(3.561px,7.631px) scale(1.009)}23.75%{transform:translate(3.745px,7.337px) scale(1.061)}25%{transform:translate(3.95px,7.043px) scale(1.093)}26.25%{transform:translate(4.177px,6.742px) scale(1.108)}27.5%{transform:translate(4.419px,6.437px) scale(1.11)}28.75%{transform:translate(4.671px,6.134px) scale(1.1)}30%{transform:translate(4.928px,5.836px) scale(1.082)}31.25%{transform:translate(5.183px,5.548px) scale(1.058)}32.5%{transform:translate(5.434px,5.271px) scale(1.028)}33.75%{transform:translate(5.677px,5.009px) scale(0.994)}35%{transform:translate(5.908px,4.763px) scale(0.958)}36.25%{transform:translate(6.127px,4.535px) scale(0.921)}37.5%{transform:translate(6.329px,4.326px) scale(0.884)}38.75%{transform:translate(6.515px,4.136px) scale(0.848)}40%{transform:translate(6.682px,3.968px) scale(0.813)}41.25%{transform:translate(6.83px,3.82px) scale(0.779)}42.5%{transform:translate(6.963px,3.691px) scale(0.745)}43.75%{transform:translate(7.084px,3.58px) scale(0.71)}45%{transform:translate(7.193px,3.482px) scale(0.672)}46.25%{transform:translate(7.292px,3.397px) scale(0.635)}47.5%{transform:translate(7.382px,3.322px) scale(0.596)}48.75%{transform:translate(7.464px,3.256px) scale(0.558)}50%{transform:translate(7.538px,3.197px) scale(0.52)}51.25%{transform:translate(7.604px,3.144px) scale(0.483)}52.5%{transform:translate(7.664px,3.096px) scale(0.447)}53.75%{transform:translate(7.717px,3.053px) scale(0.411)}55%{transform:translate(7.765px,3.013px) scale(0.377)}56.25%{transform:translate(7.807px,2.976px) scale(0.345)}57.5%{transform:translate(7.843px,2.941px) scale(0.313)}58.75%{transform:translate(7.875px,2.909px) scale(0.284)}60%{transform:translate(7.902px,2.878px) scale(0.255)}61.25%{transform:translate(7.924px,2.848px) scale(0.229)}62.5%{transform:translate(7.941px,2.821px) scale(0.204)}63.75%{transform:translate(7.954px,2.794px) scale(0.18)}65%{transform:translate(7.963px,2.768px) scale(0.158)}66.25%{transform:translate(7.968px,2.744px) scale(0.138)}67.5%{transform:translate(7.968px,2.721px) scale(0.12)}68.75%{transform:translate(7.965px,2.699px) scale(0.103)}70%{transform:translate(7.957px,2.679px) scale(0.087)}71.25%{transform:translate(7.946px,2.659px) scale(0.073)}72.5%{transform:translate(7.931px,2.642px) scale(0.06)}73.75%{transform:translate(7.913px,2.625px) scale(0.049)}75%{transform:translate(7.891px,2.611px) scale(0.039)}76.25%{transform:translate(7.865px,2.597px) scale(0.03)}77.5%{transform:translate(7.836px,2.586px) scale(0.022)}78.75%{transform:translate(7.805px,2.576px) scale(0.016)}80%{transform:translate(7.77px,2.568px) scale(0.011)}81.25%{transform:translate(7.733px,2.561px) scale(0.007)}82.5%{transform:translate(7.693px,2.556px) scale(0.004)}83.75%{transform:translate(7.65px,2.553px) scale(0.002)}85%{transform:translate(7.606px,2.551px) scale(0)}86.25%{transform:translate(7.559px,2.55px) scale(0)}87.5%{transform:translate(2.35px,10.45px) scale(0)}88.75%{transform:translate(2.35px,10.45px) scale(0)}90%{transform:translate(2.35px,10.45px) scale(0)}91.25%{transform:translate(2.35px,10.45px) scale(0)}92.5%{transform:translate(2.35px,10.45px) scale(0)}93.75%{transform:translate(2.35px,10.45px) scale(0)}95%{transform:translate(2.35px,10.45px) scale(0)}96.25%{transform:translate(2.35px,10.45px) scale(0)}97.5%{transform:translate(2.35px,10.45px) scale(0)}98.75%{transform:translate(2.35px,10.45px) scale(0)}100%{transform:translate(2.35px,10.45px) scale(0)}}
.b1{transform:translate(5.95px,3.85px) scale(1.1);animation:b1 2s linear infinite}
@keyframes b2{0%{transform:translate(2.35px,10.45px) scale(0)}1.25%{transform:translate(2.35px,10.45px) scale(0)}2.5%{transform:translate(2.35px,10.45px) scale(0)}3.75%{transform:translate(2.35px,10.45px) scale(0)}5%{transform:translate(2.35px,10.45px) scale(0)}6.25%{transform:translate(2.35px,10.45px) scale(0)}7.5%{transform:translate(2.35px,10.45px) scale(0)}8.75%{transform:translate(2.35px,10.45px) scale(0)}10%{transform:translate(2.35px,10.45px) scale(0)}11.25%{transform:translate(2.35px,10.45px) scale(0)}12.5%{transform:translate(2.35px,10.45px) scale(0)}13.75%{transform:translate(2.35px,10.45px) scale(0)}15%{transform:translate(2.35px,10.45px) scale(0)}16.25%{transform:translate(2.35px,10.45px) scale(0)}17.5%{transform:translate(2.35px,10.45px) scale(0)}18.75%{transform:translate(2.387px,10.24px) scale(0.056)}20%{transform:translate(2.436px,9.898px) scale(0.156)}21.25%{transform:translate(2.475px,9.564px) scale(0.259)}22.5%{transform:translate(2.51px,9.237px) scale(0.362)}23.75%{transform:translate(2.546px,8.917px) scale(0.461)}25%{transform:translate(2.587px,8.603px) scale(0.554)}26.25%{transform:translate(2.639px,8.294px) scale(0.637)}27.5%{transform:translate(2.704px,7.99px) scale(0.709)}28.75%{transform:translate(2.787px,7.691px) scale(0.767)}30%{transform:translate(2.888px,7.396px) scale(0.81)}31.25%{transform:translate(3.011px,7.103px) scale(0.837)}32.5%{transform:translate(3.16px,6.803px) scale(0.851)}33.75%{transform:translate(3.328px,6.498px) scale(0.854)}35%{transform:translate(3.51px,6.194px) scale(0.848)}36.25%{transform:translate(3.7px,5.895px) scale(0.836)}37.5%{transform:translate(3.893px,5.605px) scale(0.818)}38.75%{transform:translate(4.086px,5.325px) scale(0.795)}40%{transform:translate(4.275px,5.06px) scale(0.77)}41.25%{transform:translate(4.457px,4.811px) scale(0.743)}42.5%{transform:translate(4.63px,4.579px) scale(0.714)}43.75%{transform:translate(4.792px,4.366px) scale(0.686)}45%{transform:translate(4.941px,4.173px) scale(0.658)}46.25%{transform:translate(5.076px,4px) scale(0.63)}47.5%{transform:translate(5.196px,3.848px) scale(0.605)}48.75%{transform:translate(5.305px,3.716px) scale(0.579)}50%{transform:translate(5.405px,3.601px) scale(0.551)}51.25%{transform:translate(5.499px,3.501px) scale(0.523)}52.5%{transform:translate(5.587px,3.413px) scale(0.494)}53.75%{transform:translate(5.67px,3.336px) scale(0.465)}55%{transform:translate(5.749px,3.268px) scale(0.435)}56.25%{transform:translate(5.824px,3.208px) scale(0.406)}57.5%{transform:translate(5.897px,3.154px) scale(0.377)}58.75%{transform:translate(5.968px,3.106px) scale(0.349)}60%{transform:translate(6.037px,3.061px) scale(0.322)}61.25%{transform:translate(6.105px,3.021px) scale(0.295)}62.5%{transform:translate(6.171px,2.983px) scale(0.27)}63.75%{transform:translate(6.237px,2.948px) scale(0.246)}65%{transform:translate(6.302px,2.915px) scale(0.223)}66.25%{transform:translate(6.366px,2.884px) scale(0.201)}67.5%{transform:translate(6.43px,2.854px) scale(0.18)}68.75%{transform:translate(6.493px,2.826px) scale(0.16)}70%{transform:translate(6.556px,2.799px) scale(0.142)}71.25%{transform:translate(6.618px,2.773px) scale(0.125)}72.5%{transform:translate(6.68px,2.749px) scale(0.109)}73.75%{transform:translate(6.741px,2.726px) scale(0.095)}75%{transform:translate(6.802px,2.703px) scale(0.081)}76.25%{transform:translate(6.862px,2.683px) scale(0.069)}77.5%{transform:translate(6.921px,2.663px) scale(0.058)}78.75%{transform:translate(6.979px,2.645px) scale(0.048)}80%{transform:translate(7.036px,2.629px) scale(0.039)}81.25%{transform:translate(7.092px,2.613px) scale(0.031)}82.5%{transform:translate(7.147px,2.6px) scale(0.024)}83.75%{transform:translate(7.2px,2.588px) scale(0.018)}85%{transform:translate(7.252px,2.578px) scale(0.013)}86.25%{transform:translate(7.303px,2.569px) scale(0.009)}87.5%{transform:translate(7.352px,2.562px) scale(0.006)}88.75%{transform:translate(7.4px,2.557px) scale(0.003)}90%{transform:translate(7.446px,2.553px) scale(0.002)}91.25%{transform:translate(7.49px,2.551px) scale(0)}92.5%{transform:translate(7.533px,2.55px) scale(0)}93.75%{transform:translate(2.35px,10.45px) scale(0)}95%{transform:translate(2.35px,10.45px) scale(0)}96.25%{transform:translate(2.35px,10.45px) scale(0)}97.5%{transform:translate(2.35px,10.45px) scale(0)}98.75%{transform:translate(2.35px,10.45px) scale(0)}100%{transform:translate(2.35px,10.45px) scale(0)}}
.b2{transform:translate(2.35px,10.45px) scale(0);animation:b2 2s linear infinite}
@media (prefers-reduced-motion:reduce){*{animation:none!important}}
</style><clipPath id="body"><path d="M22.359 10.692 L22.328 10.599 L22.293 10.509 L22.255 10.419 L22.212 10.334 L22.166 10.249 L22.117 10.166 L22.064 10.086 L22.009 10.009 L21.95 9.935 L21.888 9.863 L21.823 9.794 L21.755 9.728 L21.684 9.665 L21.611 9.605 L21.535 9.548 L21.457 9.494 L21.376 9.444 L21.294 9.397 L21.208 9.354 L21.12 9.315 L21.032 9.28 L20.94 9.248 L20.848 9.22 L20.658 9.176 L20.43 9.135 L20.166 9.098 L19.213 9.006 L18.855 8.982 L18.482 8.96 L18.101 8.94 L17.662 8.922 L17.704 8.987 L15.777 8.999 L15.822 8.928 L15.864 8.869 L15.202 8.859 L14.157 8.85 L13.943 8.85 L13.427 8.854 L12.589 8.863 L11.905 8.877 L11.538 8.885 L10.775 8.908 L10.386 8.924 L10 8.94 L9.618 8.96 L9.245 8.982 L8.887 9.006 L7.934 9.098 L7.67 9.135 L7.442 9.176 L7.252 9.22 L7.16 9.248 L7.068 9.28 L6.98 9.315 L6.892 9.354 L6.807 9.397 L6.724 9.444 L6.643 9.494 L6.565 9.548 L6.489 9.605 L6.416 9.665 L6.345 9.728 L6.277 9.794 L6.212 9.863 L6.15 9.935 L6.091 10.009 L6.036 10.086 L5.983 10.166 L5.934 10.249 L5.888 10.334 L5.845 10.419 L5.807 10.509 L5.772 10.599 L5.741 10.692 L5.714 10.786 L5.67 10.967 L5.63 11.16 L5.594 11.366 L5.561 11.582 L5.53 11.806 L5.503 12.035 L5.48 12.269 L5.458 12.505 L5.439 12.742 L5.407 13.209 L5.385 13.655 L5.376 13.866 L5.363 14.251 L5.359 14.423 L5.352 14.83 L5.35 14.992 L5.352 15.27 L5.359 15.677 L5.363 15.849 L5.376 16.234 L5.385 16.445 L5.407 16.891 L5.439 17.358 L5.458 17.595 L5.48 17.831 L5.503 18.065 L5.53 18.294 L5.561 18.518 L5.594 18.734 L5.63 18.94 L5.67 19.133 L5.714 19.314 L5.741 19.408 L5.772 19.501 L5.807 19.591 L5.845 19.681 L5.888 19.767 L5.934 19.851 L5.983 19.934 L6.036 20.014 L6.091 20.091 L6.15 20.165 L6.212 20.237 L6.277 20.306 L6.345 20.372 L6.416 20.435 L6.489 20.495 L6.565 20.552 L6.643 20.606 L6.724 20.656 L6.807 20.703 L6.892 20.746 L6.98 20.785 L7.068 20.82 L7.16 20.852 L7.252 20.88 L7.442 20.924 L7.67 20.965 L7.934 21.002 L8.226 21.036 L8.546 21.067 L8.887 21.094 L9.245 21.118 L9.618 21.14 L10 21.16 L10.386 21.176 L10.775 21.192 L11.16 21.204 L11.538 21.215 L12.256 21.231 L12.898 21.241 L13.427 21.246 L13.943 21.25 L14.157 21.25 L15.202 21.241 L15.511 21.237 L16.195 21.223 L16.941 21.204 L17.325 21.192 L17.714 21.176 L18.101 21.16 L18.482 21.14 L18.855 21.118 L19.213 21.094 L19.554 21.067 L19.874 21.036 L20.166 21.002 L20.43 20.965 L20.658 20.924 L20.848 20.88 L20.94 20.852 L21.032 20.82 L21.12 20.785 L21.208 20.746 L21.294 20.703 L21.376 20.656 L21.457 20.606 L21.535 20.552 L21.611 20.495 L21.684 20.435 L21.755 20.372 L21.823 20.306 L21.888 20.237 L21.95 20.165 L22.009 20.091 L22.064 20.014 L22.117 19.934 L22.166 19.851 L22.212 19.767 L22.255 19.681 L22.293 19.591 L22.328 19.501 L22.359 19.408 L22.386 19.314 L22.43 19.133 L22.47 18.94 L22.506 18.734 L22.539 18.518 L22.57 18.294 L22.597 18.065 L22.62 17.831 L22.642 17.595 L22.661 17.358 L22.678 17.123 L22.693 16.891 L22.705 16.664 L22.715 16.445 L22.731 16.035 L22.737 15.849 L22.745 15.522 L22.75 15.108 L22.75 14.992 L22.747 14.714 L22.74 14.423 L22.731 14.065 L22.714 13.655 L22.704 13.436 L22.692 13.209 L22.677 12.977 L22.66 12.742 L22.641 12.505 L22.62 12.269 L22.596 12.035 L22.569 11.806 L22.539 11.582 L22.506 11.366 L22.47 11.16 L22.43 10.967 L22.386 10.786Z"/></clipPath><g fill="#FFC20E"><path d="M17.95 4.45 L17.923 4.243 L17.843 4.05 L17.716 3.884 L17.55 3.757 L17.357 3.677 L17.15 3.65 L11.95 3.65 L11.734 3.68 L11.534 3.767 L11.365 3.904 L11.239 4.082 L11.167 4.288 L10.206 8.931 L10 8.94 L9.618 8.96 L9.245 8.982 L8.887 9.006 L7.934 9.098 L7.67 9.135 L7.442 9.176 L7.252 9.22 L7.16 9.248 L7.068 9.28 L6.98 9.315 L6.892 9.354 L6.807 9.397 L6.724 9.444 L6.643 9.494 L6.565 9.548 L6.489 9.605 L6.416 9.665 L6.345 9.728 L6.277 9.794 L6.212 9.863 L6.15 9.935 L6.091 10.009 L6.036 10.086 L5.983 10.166 L5.934 10.249 L5.888 10.334 L5.845 10.419 L5.807 10.509 L5.772 10.599 L5.741 10.692 L5.714 10.786 L5.67 10.967 L5.63 11.16 L5.594 11.366 L5.561 11.582 L5.53 11.806 L5.503 12.035 L5.502 12.05 L4.159 13.392 L2.283 11.435 L2.16 11.336 L2.015 11.273 L1.859 11.25 L1.702 11.269 L1.555 11.328 L1.429 11.423 L1.332 11.548 L1.271 11.693 L1.25 11.85 L1.25 18.25 L1.271 18.407 L1.332 18.552 L1.429 18.677 L1.555 18.772 L1.702 18.831 L1.859 18.85 L2.015 18.827 L2.16 18.764 L2.283 18.665 L4.159 16.708 L5.502 18.05 L5.503 18.065 L5.53 18.294 L5.561 18.518 L5.594 18.734 L5.63 18.94 L5.67 19.133 L5.714 19.314 L5.741 19.408 L5.772 19.501 L5.807 19.591 L5.845 19.681 L5.888 19.767 L5.934 19.851 L5.983 19.934 L6.036 20.014 L6.091 20.091 L6.15 20.165 L6.212 20.237 L6.277 20.306 L6.345 20.372 L6.416 20.435 L6.489 20.495 L6.565 20.552 L6.643 20.606 L6.724 20.656 L6.807 20.703 L6.892 20.746 L6.98 20.785 L7.068 20.82 L7.16 20.852 L7.252 20.88 L7.442 20.924 L7.67 20.965 L7.934 21.002 L8.226 21.036 L8.546 21.067 L8.887 21.094 L9.245 21.118 L9.618 21.14 L10 21.16 L10.386 21.176 L10.775 21.192 L11.16 21.204 L11.538 21.215 L12.256 21.231 L12.898 21.241 L13.427 21.246 L13.943 21.25 L14.157 21.25 L15.202 21.241 L15.511 21.237 L16.195 21.223 L16.941 21.204 L17.325 21.192 L17.714 21.176 L18.101 21.16 L18.482 21.14 L18.855 21.118 L19.213 21.094 L19.554 21.067 L19.874 21.036 L20.166 21.002 L20.43 20.965 L20.658 20.924 L20.848 20.88 L20.94 20.852 L21.032 20.82 L21.12 20.785 L21.208 20.746 L21.294 20.703 L21.376 20.656 L21.457 20.606 L21.535 20.552 L21.611 20.495 L21.684 20.435 L21.755 20.372 L21.823 20.306 L21.888 20.237 L21.95 20.165 L22.009 20.091 L22.064 20.014 L22.117 19.934 L22.166 19.851 L22.212 19.767 L22.255 19.681 L22.293 19.591 L22.328 19.501 L22.359 19.408 L22.386 19.314 L22.43 19.133 L22.47 18.94 L22.506 18.734 L22.539 18.518 L22.57 18.294 L22.597 18.065 L22.62 17.831 L22.642 17.595 L22.661 17.358 L22.678 17.123 L22.693 16.891 L22.705 16.664 L22.715 16.445 L22.731 16.035 L22.737 15.849 L22.745 15.522 L22.75 15.108 L22.75 14.992 L22.747 14.714 L22.74 14.423 L22.731 14.065 L22.714 13.655 L22.704 13.436 L22.692 13.209 L22.677 12.977 L22.66 12.742 L22.641 12.505 L22.62 12.269 L22.596 12.035 L22.569 11.806 L22.539 11.582 L22.506 11.366 L22.47 11.16 L22.43 10.967 L22.386 10.786 L22.359 10.692 L22.328 10.599 L22.293 10.509 L22.255 10.419 L22.212 10.334 L22.166 10.249 L22.117 10.166 L22.064 10.086 L22.009 10.009 L21.95 9.935 L21.888 9.863 L21.823 9.794 L21.755 9.728 L21.684 9.665 L21.611 9.605 L21.535 9.548 L21.457 9.494 L21.376 9.444 L21.294 9.397 L21.208 9.354 L21.12 9.315 L21.032 9.28 L20.94 9.248 L20.848 9.22 L20.658 9.176 L20.43 9.135 L20.166 9.098 L19.213 9.006 L18.855 8.982 L18.482 8.96 L18.101 8.94 L17.95 8.934Z"/><circle class="b0" r="1"/><circle class="b1" r="1"/><circle class="b2" r="1"/></g><g fill="#1B1E24"><g clip-path="url(#body)"><circle class="p0" r="1"/><circle class="p1" r="1"/><circle class="p2" r="1"/><circle class="p3" r="1"/></g></g></svg>
